<svg width="3405" height="3405" xmlns="http://www.w3.org/2000/svg" xmlns:xlink="http://www.w3.org/1999/xlink" xml:space="preserve" overflow="hidden"><g transform="translate(-325 -247)"><g><path d="M3587.68 3094.06 3067.33 2573.8C2996.56 2503.05 2900.82 2478.08 2809.24 2494.73L2626.07 2311.6C2788.42 2103.5 2884.17 1837.13 2884.17 1554.11 2884.17 867.374 2322.19 305.5 1635.33 305.5 948.475 305.5 386.5 867.374 386.5 1554.11 386.5 2240.84 948.475 2802.72 1635.33 2802.72 1918.4 2802.72 2180.66 2706.99 2392.96 2544.67L2576.12 2727.8C2559.47 2819.36 2584.45 2915.09 2655.21 2985.84L3175.56 3506.1C3233.84 3564.37 3308.77 3593.5 3383.7 3593.5 3458.63 3593.5 3533.56 3564.37 3591.84 3506.1 3700.07 3389.56 3700.07 3206.43 3587.68 3094.06ZM1631.17 2548.83C1081.68 2548.83 632.104 2099.33 632.104 1549.95 632.104 1000.56 1081.68 551.06 1631.17 551.06 2180.66 551.06 2630.24 1000.56 2630.24 1549.95 2630.24 2099.33 2180.66 2548.83 1631.17 2548.83Z" stroke="#FFC000" stroke-width="114.583" stroke-linecap="butt" stroke-linejoin="miter" stroke-miterlimit="8" stroke-opacity="1" fill="#FFC000" fill-rule="evenodd" fill-opacity="1"/></g></g></svg>