<svg width="24" height="24" xmlns="http://www.w3.org/2000/svg" fill="none">
 <g>
  <title>Layer 1</title>
  <g id="svg_1" stroke-width="0" stroke="null">
   <path id="svg_2" d="m16.53075,1.16829c-2.00344,-0.09815 -4.8921,2.15935 -3.75062,2.90531l-1.39774,0.43187l0.62898,0.01963l-0.34944,0.41224l1.35114,-0.78522c1.58411,0.07852 3.33129,-0.17667 4.42619,-1.13857c0.69886,-0.11778 1.35114,-0.05889 1.86364,0.09815c0.48922,0.15705 1.58411,0.64781 1.58411,1.88453c0,2.9642 -3.65742,4.14203 -8.82907,5.49654c-3.98357,1.04041 -8.01372,2.04157 -7.73417,4.7702c0.18637,1.98268 2.23639,2.90531 4.10004,3.4157l0,-1.72748c-0.93183,-0.49076 -1.74718,-0.74596 -1.77046,-1.68822c-0.0233,-1.13857 3.09832,-2.10046 6.10348,-2.88568c4.65915,-1.21709 10.45978,-2.74827 10.45978,-7.38106c0,-1.68822 -1.18807,-3.12124 -3.09834,-3.72979c-1.21137,-0.35335 -2.44603,-0.37298 -3.58754,-0.09815l-0.00001,0l0.00001,0l0.00002,0zm-13.25526,5.08429c-0.18637,0 -0.32614,0.11778 -0.32614,0.27483c0.04659,1.72748 0.53581,4.18129 2.2131,5.96766c1.58411,-1.19746 4.16993,-1.88453 6.70917,-2.55196c2.79549,-0.72633 5.12506,-1.4134 6.61598,-2.33603c0.04658,-0.39261 0.06988,-0.74596 0.09317,-1.09931c0,-0.15704 -0.13978,-0.27483 -0.32615,-0.27483l-14.97913,0.01963l0.00001,0.00001l-0.00001,0zm13.69787,5.49653c-1.35116,0.4515 -2.74891,0.82448 -4.00687,1.1582c-1.49092,0.39261 -3.49437,0.92264 -4.65914,1.49192c0.25625,0.07852 0.53581,0.13742 0.81535,0.1963l0,5.24133l-3.51765,2.74834c-0.53581,0.41225 -0.37274,0.76562 0.34944,0.76562l9.64443,0c0.74546,0 0.88523,-0.33373 0.34944,-0.76562l-3.51765,-2.74834l0,-5.24133c2.1898,-0.43187 3.61083,-1.53118 4.54267,-2.84642l-0.00002,0zm-3.8904,7.85218l0.62899,0.49076c2.28297,0.8245 4.30971,1.66863 5.9404,2.90539c0.34944,0.2552 0.79205,-0.15704 0.48922,-0.39262c-1.98013,-1.74717 -4.75232,-3.14095 -7.05859,-4.00469l-0.00001,1.00116l-0.00001,0z" fill="#c5c5c5" stroke="null"/>
  </g>
 </g>

</svg>