<svg width="2305" height="2305" xmlns="http://www.w3.org/2000/svg" xmlns:xlink="http://www.w3.org/1999/xlink" xml:space="preserve" overflow="hidden"><g transform="translate(-797 -797)"><g><path d="M1001.03 798 798 798 798 3099 3099 3099 3099 2895.97 1001.03 2895.97 1001.03 798Z" fill="#A6A6A6" fill-rule="evenodd" fill-opacity="1"/><path d="M2422.2 2285.98C2342.85 2285.98 2192.65 2040.83 2113.14 1781.55 2049.18 1573.01 1869.63 1088 1585.53 1088 1330.99 1088 1206.56 1471.31 1147 1792.85L1346.55 1829.86C1419.26 1437.41 1531.75 1290.99 1585.56 1290.99 1664.8 1290.99 1814.8 1501.32 1919.04 1841.13 1939.33 1907.44 2126.3 2489 2422.1 2489 2628.41 2489 2780.6 2265 2874.35 1823.84L3097 1881.55 2858.49 1475.57 2452.64 1714.29 2677.92 1772.79C2603.48 2127.14 2495.96 2285.98 2422.2 2285.98Z" fill="#FF7E79" fill-rule="evenodd" fill-opacity="1"/></g></g></svg>