<svg width="2333" height="2333" xmlns="http://www.w3.org/2000/svg" xmlns:xlink="http://www.w3.org/1999/xlink" xml:space="preserve" overflow="hidden"><g transform="translate(-783 -783)"><g><path d="M2836.22 2836.27C2717.7 2954.77 2524.68 2954.77 2406.16 2836.27L2118.32 2548.49C2026.89 2457.08 2003.18 2318.27 2060.75 2203.16L2311.34 2453.69C2351.97 2490.94 2412.93 2490.94 2453.56 2450.31 2490.81 2413.07 2494.2 2348.74 2456.95 2308.11L2206.36 2057.57C2321.5 2003.4 2460.34 2027.1 2551.77 2118.51L2839.61 2406.3C2954.74 2524.79 2954.74 2714.39 2836.22 2836.27ZM1349.62 1779.95 1061.78 1492.17C943.26 1373.67 943.26 1180.69 1061.78 1062.19 1180.3 943.69 1373.32 943.69 1491.85 1062.19L1779.68 1349.97C1871.11 1441.38 1894.82 1580.19 1840.64 1695.31L1637.46 1492.17C1596.82 1454.93 1535.87 1454.93 1495.23 1495.55 1457.98 1532.8 1454.6 1597.12 1491.85 1637.75L1695.03 1840.89C1579.89 1895.06 1441.05 1871.36 1349.62 1779.95ZM2978.45 2260.71 2690.61 1972.93C2521.29 1800.26 2250.38 1773.18 2050.59 1908.6L1989.64 1847.66C2121.7 1647.91 2094.61 1380.44 1925.3 1207.77L1637.46 919.991C1437.66 737.165 1126.12 743.937 933.101 933.533 740.08 1126.52 733.307 1434.61 919.555 1637.75L1207.39 1925.53C1376.71 2098.2 1647.62 2125.29 1847.41 1989.86L1908.36 2050.8C1776.3 2250.56 1803.39 2518.02 1972.7 2690.69L2260.54 2978.47C2460.34 3164.68 2771.88 3157.91 2964.9 2964.93 3157.92 2771.95 3164.69 2460.47 2978.45 2260.71Z" fill="#A6A6A6" fill-rule="evenodd" fill-opacity="1"/></g></g></svg>