<svg width="408" height="413" xmlns="http://www.w3.org/2000/svg" xmlns:xlink="http://www.w3.org/1999/xlink" xml:space="preserve" overflow="hidden"><g transform="translate(-866 -797)"><g><path d="M867 823.667C867 811.701 876.701 802 888.667 802L975.333 802C987.299 802 997 811.701 997 823.667L997 910.333C997 922.299 987.299 932 975.333 932L888.667 932C876.701 932 867 922.299 867 910.333Z" fill="#FFC000" fill-rule="evenodd" fill-opacity="1"/><path d="M1005 823.667C1005 811.701 1014.7 802 1026.67 802L1113.33 802C1125.3 802 1135 811.701 1135 823.667L1135 910.333C1135 922.299 1125.3 932 1113.33 932L1026.67 932C1014.7 932 1005 922.299 1005 910.333Z" fill="#4E95D9" fill-rule="evenodd" fill-opacity="1"/><path d="M1142 823.667C1142 811.701 1151.7 802 1163.67 802L1250.33 802C1262.3 802 1272 811.701 1272 823.667L1272 910.333C1272 922.299 1262.3 932 1250.33 932L1163.67 932C1151.7 932 1142 922.299 1142 910.333Z" fill="#E97132" fill-rule="evenodd" fill-opacity="1"/><path d="M867 961.667C867 949.701 876.701 940 888.667 940L975.333 940C987.299 940 997 949.701 997 961.667L997 1048.33C997 1060.3 987.299 1070 975.333 1070L888.667 1070C876.701 1070 867 1060.3 867 1048.33Z" fill="#B4E5A2" fill-rule="evenodd" fill-opacity="1"/><path d="M1005 961.667C1005 949.701 1014.7 940 1026.67 940L1113.33 940C1125.3 940 1135 949.701 1135 961.667L1135 1048.33C1135 1060.3 1125.3 1070 1113.33 1070L1026.67 1070C1014.7 1070 1005 1060.3 1005 1048.33Z" fill="#E97132" fill-rule="evenodd" fill-opacity="1"/><path d="M1142 961.667C1142 949.701 1151.7 940 1163.67 940L1250.33 940C1262.3 940 1272 949.701 1272 961.667L1272 1048.33C1272 1060.3 1262.3 1070 1250.33 1070L1163.67 1070C1151.7 1070 1142 1060.3 1142 1048.33Z" fill="#B4E5A2" fill-rule="evenodd" fill-opacity="1"/><path d="M867 1100.67C867 1088.7 876.701 1079 888.667 1079L975.333 1079C987.299 1079 997 1088.7 997 1100.67L997 1187.33C997 1199.3 987.299 1209 975.333 1209L888.667 1209C876.701 1209 867 1199.3 867 1187.33Z" fill="#4E95D9" fill-rule="evenodd" fill-opacity="1"/><path d="M1005 1100.67C1005 1088.7 1014.7 1079 1026.67 1079L1113.33 1079C1125.3 1079 1135 1088.7 1135 1100.67L1135 1187.33C1135 1199.3 1125.3 1209 1113.33 1209L1026.67 1209C1014.7 1209 1005 1199.3 1005 1187.33Z" fill="#FFC000" fill-rule="evenodd" fill-opacity="1"/><path d="M1142 1100.67C1142 1088.7 1151.7 1079 1163.67 1079L1250.33 1079C1262.3 1079 1272 1088.7 1272 1100.67L1272 1187.33C1272 1199.3 1262.3 1209 1250.33 1209L1163.67 1209C1151.7 1209 1142 1199.3 1142 1187.33Z" fill="#4E95D9" fill-rule="evenodd" fill-opacity="1"/></g></g></svg>