<svg width="2402" height="1943" xmlns="http://www.w3.org/2000/svg" xmlns:xlink="http://www.w3.org/1999/xlink" xml:space="preserve" overflow="hidden"><g transform="translate(-760 -843)"><g><rect x="1863" y="2091" width="199" height="694" fill="#A6A6A6" fill-opacity="1"/><path d="M765 984.391C765 907.408 827.407 845 904.391 845L3020.61 845C3097.59 845 3160 907.408 3160 984.391L3160 2320.61C3160 2397.59 3097.59 2460 3020.61 2460L904.391 2460C827.407 2460 765 2397.59 765 2320.61Z" fill="#A6A6A6" fill-rule="evenodd" fill-opacity="1"/><path d="M765 2659.19C765 2601.65 811.645 2555 869.184 2555L3055.82 2555C3113.36 2555 3160 2601.65 3160 2659.19L3160 2680.81C3160 2738.35 3113.36 2785 3055.82 2785L869.184 2785C811.645 2785 765 2738.35 765 2680.81Z" fill="#A6A6A6" fill-rule="evenodd" fill-opacity="1"/><path d="M1039 1150.69C1039 1092.87 1085.87 1046 1143.69 1046L2781.31 1046C2839.13 1046 2886 1092.87 2886 1150.69L2886 2154.31C2886 2212.13 2839.13 2259 2781.31 2259L1143.69 2259C1085.87 2259 1039 2212.13 1039 2154.31Z" fill="#C1E5F5" fill-rule="evenodd" fill-opacity="1"/></g></g></svg>